<?xml version="1.0" encoding="UTF-8"?>
<svg width="128px" height="128px" viewBox="0 0 128 128" version="1.1" xmlns="http://www.w3.org/2000/svg" xmlns:xlink="http://www.w3.org/1999/xlink">
    <!-- Generator: Sketch 40.3 (33839) - http://www.bohemiancoding.com/sketch -->
    <title>icon</title>
    <desc>Created with Sketch.</desc>
    <defs></defs>
    <g id="plugin-repo" stroke="none" stroke-width="1" fill="none" fill-rule="evenodd">
        <g id="icon">
            <g id="cycles-logo" transform="translate(15.000000, 16.000000)">
                <path d="M86.1777149,82.4505557 L75.9462256,72.2190664 C63.2235804,84.9417116 42.2213198,84.5669344 29.0363635,71.3819782 C15.8514073,58.197022 15.4766302,37.1947614 28.1992754,24.4721161 C40.9219206,11.7494709 61.9241812,12.1242481 75.1091375,25.3092043 L84.9818747,15.436467 C66.146223,-3.39918472 36.1429935,-3.93458062 17.9677861,14.2406268 C-0.207421368,32.4158343 0.327974532,62.4190637 19.1636263,81.2547155 C37.999278,100.090367 68.0025075,100.625763 86.1777149,82.4505557 L86.1777149,82.4505557 Z" id="Combined-Shape" fill="#2979FF"></path>
                <path d="M2.28618351,93.7683992 C19.3334897,85.4433475 16.1982599,78.9364589 16.9142004,67.6985689 C21.9734476,81.4398263 23.6091259,79.8270917 31.5422173,85.4433474 C26.4592191,92.9103609 16.0006528,95.4312804 2.28618351,93.7683992 Z" id="Combined-Shape-Copy" fill="#2979FF" transform="translate(16.914200, 80.978418) rotate(-7.000000) translate(-16.914200, -80.978418) "></path>
                <path d="M76.7563762,66.3049995 L83.3805029,66.3049995 L83.3805029,9.69136892 L70.1322494,9.69136892 L70.1322494,53.5212765 L49.3135654,53.5212765 L49.3135654,66.3049995 L76.7563762,66.3049995 Z" id="Combined-Shape" fill="#28CA42" transform="translate(66.347034, 37.998184) rotate(-315.000000) translate(-66.347034, -37.998184) "></path>
            </g>
        </g>
    </g>
</svg>